<svg width="512" height="512" viewBox="0 0 512 512" fill="none" xmlns="http://www.w3.org/2000/svg">
<path d="M380 182.667V149.111C380 130.579 365.002 115.556 346.5 115.556H145.5C126.998 115.556 112 130.579 112 149.111V350.444C112 368.977 126.998 384 145.5 384H195.75M296.25 82V149.111M195.75 82V149.111M112 216.222H195.75" stroke="white" stroke-width="23" stroke-linecap="round"/>
<path d="M413 205L171 304.647L270.647 347.353L313.353 447L413 205Z" fill="url(#paint0_linear_207_2)"/>
<path d="M413 205L171 304.647L270.647 347.353M413 205L313.353 447L270.647 347.353M413 205L270.647 347.353" stroke="white" stroke-width="23" stroke-linecap="round" stroke-linejoin="round"/>
<defs>
<linearGradient id="paint0_linear_207_2" x1="292" y1="205" x2="292" y2="447" gradientUnits="userSpaceOnUse">
<stop stop-color="#0CCDA3"/>
<stop offset="1" stop-color="#C1FCD3"/>
</linearGradient>
</defs>
</svg>
