<svg width="512" height="512" viewBox="0 0 512 512" fill="none" xmlns="http://www.w3.org/2000/svg">
<path d="M356.5 272.778L256 373.444V407H289.5L390 306.333L356.5 272.778Z" fill="url(#paint0_linear_207_2)"/>
<path d="M378.5 205.667C378.5 212.018 383.649 217.167 390 217.167C396.351 217.167 401.5 212.018 401.5 205.667H378.5ZM205.75 418.5C212.101 418.5 217.25 413.351 217.25 407C217.25 400.649 212.101 395.5 205.75 395.5V418.5ZM317.75 105C317.75 98.6487 312.601 93.5 306.25 93.5C299.899 93.5 294.75 98.6487 294.75 105H317.75ZM294.75 172.111C294.75 178.462 299.899 183.611 306.25 183.611C312.601 183.611 317.75 178.462 317.75 172.111H294.75ZM217.25 105C217.25 98.6487 212.101 93.5 205.75 93.5C199.399 93.5 194.25 98.6487 194.25 105H217.25ZM194.25 172.111C194.25 178.462 199.399 183.611 205.75 183.611C212.101 183.611 217.25 178.462 217.25 172.111H194.25ZM122 227.722C115.649 227.722 110.5 232.871 110.5 239.222C110.5 245.574 115.649 250.722 122 250.722V227.722ZM205.75 250.722C212.101 250.722 217.25 245.574 217.25 239.222C217.25 232.871 212.101 227.722 205.75 227.722V250.722ZM256 373.444L247.862 365.319L244.5 368.687V373.444H256ZM356.5 272.778L364.638 264.653C362.481 262.492 359.553 261.278 356.5 261.278C353.447 261.278 350.519 262.492 348.362 264.653L356.5 272.778ZM390 306.333L398.138 314.458C402.621 309.969 402.621 302.698 398.138 298.208L390 306.333ZM289.5 407V418.5H294.269L297.638 415.125L289.5 407ZM256 407H244.5C244.5 413.351 249.649 418.5 256 418.5V407ZM155.5 150.056H356.5V127.056H155.5V150.056ZM133.5 373.444V172.111H110.5V373.444H133.5ZM155.5 395.5C143.368 395.5 133.5 385.643 133.5 373.444H110.5C110.5 398.31 130.629 418.5 155.5 418.5V395.5ZM356.5 150.056C368.632 150.056 378.5 159.912 378.5 172.111H401.5C401.5 147.246 381.371 127.056 356.5 127.056V150.056ZM155.5 127.056C130.629 127.056 110.5 147.246 110.5 172.111H133.5C133.5 159.912 143.368 150.056 155.5 150.056V127.056ZM378.5 172.111V205.667H401.5V172.111H378.5ZM205.75 395.5H155.5V418.5H205.75V395.5ZM294.75 105V172.111H317.75V105H294.75ZM194.25 105V172.111H217.25V105H194.25ZM122 250.722H205.75V227.722H122V250.722ZM264.138 381.569L364.638 280.903L348.362 264.653L247.862 365.319L264.138 381.569ZM348.362 280.903L381.862 314.458L398.138 298.208L364.638 264.653L348.362 280.903ZM381.862 298.208L281.362 398.875L297.638 415.125L398.138 314.458L381.862 298.208ZM289.5 395.5H256V418.5H289.5V395.5ZM267.5 407V373.444H244.5V407H267.5ZM323.237 306.069L356.737 339.625L373.013 323.375L339.513 289.819L323.237 306.069Z" fill="#262626"/>
<defs>
<linearGradient id="paint0_linear_207_2" x1="359.248" y1="298.862" x2="255.821" y2="406.829" gradientUnits="userSpaceOnUse">
<stop stop-color="#0CCDA3" stop-opacity="0.639216"/>
<stop offset="1" stop-color="#C1FCD3"/>
</linearGradient>
</defs>
</svg>
