<svg width="512" height="512" viewBox="0 0 512 512" fill="none" xmlns="http://www.w3.org/2000/svg">
<path d="M371 184V153.333C371 136.397 357.289 122.667 340.375 122.667H156.625C139.711 122.667 126 136.397 126 153.333V337.333C126 354.27 139.711 368 156.625 368H202.562M294.437 92V153.333M202.562 92V153.333M126 214.667H202.562" stroke="#262626" stroke-width="23" stroke-linecap="round"/>
<path d="M401 204L180 295L271 334L310 425L401 204Z" fill="url(#paint0_linear_207_2)"/>
<path d="M401 204L180 295L271 334M401 204L310 425L271 334M401 204L271 334" stroke="#262626" stroke-width="23" stroke-linecap="round" stroke-linejoin="round"/>
<defs>
<linearGradient id="paint0_linear_207_2" x1="290.5" y1="204" x2="290.5" y2="425" gradientUnits="userSpaceOnUse">
<stop stop-color="#0CCDA3"/>
<stop offset="1" stop-color="#C1FCD3"/>
</linearGradient>
</defs>
</svg>
